<?xml version="1.0" encoding="UTF-8" standalone="no"?>
<!-- Created with Inkscape (http://www.inkscape.org/) -->

<svg
   xmlns:dc="http://purl.org/dc/elements/1.1/"
   xmlns:cc="http://creativecommons.org/ns#"
   xmlns:rdf="http://www.w3.org/1999/02/22-rdf-syntax-ns#"
   xmlns:svg="http://www.w3.org/2000/svg"
   xmlns="http://www.w3.org/2000/svg"
   xmlns:inkscape="http://www.inkscape.org/namespaces/inkscape"
   version="1.1"
   width="859.375"
   height="200.3875"
   id="svg2"
   xml:space="preserve"><metadata
     id="metadata8"><rdf:RDF><cc:Work
         rdf:about=""><dc:format>image/svg+xml</dc:format><dc:type
           rdf:resource="http://purl.org/dc/dcmitype/StillImage" /></cc:Work></rdf:RDF></metadata><defs
     id="defs6"><clipPath
       id="clipPath18"><path
         d="m 0,0 6874.96,0 0,1603 L 0,1603 0,0 z"
         inkscape:connector-curvature="0"
         id="path20" /></clipPath></defs><g
     transform="matrix(1.25,0,0,-1.25,0,200.3875)"
     id="g10"><g
       transform="scale(0.1,0.1)"
       id="g12"><g
         id="g14"><g
           clip-path="url(#clipPath18)"
           id="g16"><path
             d="m 2701.79,1232.36 -161.58,-583.18 403.14,0 -161.53,583.18 -80.03,0 z m -381.6,-963.239 292.35,1064.819 258.49,0 292.41,-1064.819 -116.98,0 -76.94,273.93 -455.47,0 -76.93,-273.93 -116.93,0"
             inkscape:connector-curvature="0"
             id="path22"
             style="fill:#8b8c8d;fill-opacity:1;fill-rule:nonzero;stroke:none" /><path
             d="m 3911.23,781.562 c 144.68,0 216.99,74.61 216.99,223.828 0,149.32 -72.88,223.94 -218.5,223.94 l -275.47,0 0,-447.768 276.98,0 z m -276.98,-104.707 0,-407.734 -118.45,0 0,1064.819 393.92,0 c 112.84,0 197.72,-26.15 254.65,-78.46 56.92,-52.32 85.4,-133.92 85.4,-244.72 0,-164.112 -65.13,-267.205 -195.45,-309.276 l 204.67,-432.363 -130.77,0 -192.35,407.734 -301.62,0"
             inkscape:connector-curvature="0"
             id="path24"
             style="fill:#8b8c8d;fill-opacity:1;fill-rule:nonzero;stroke:none" /><path
             d="m 4648.37,269.121 0,1064.819 213.9,0 301.56,-900.17 301.62,900.17 213.9,0 0,-1064.819 -118.51,0 0,938.619 -21.54,0 -309.28,-900.181 -132.35,0 -309.32,900.181 -21.55,0 0,-938.619 -118.43,0"
             inkscape:connector-curvature="0"
             id="path26"
             style="fill:#8b8c8d;fill-opacity:1;fill-rule:nonzero;stroke:none" /><path
             d="m 6413.31,1232.36 -161.56,-583.18 403.13,0 -161.52,583.18 -80.05,0 z m -381.6,-963.239 292.35,1064.819 258.49,0 292.41,-1064.819 -116.98,0 -76.94,273.93 -455.46,0 -76.95,-273.93 -116.92,0"
             inkscape:connector-curvature="0"
             id="path28"
             style="fill:#8b8c8d;fill-opacity:1;fill-rule:nonzero;stroke:none" /><path
             d="M 1247.1,497.781 1580.77,0 2086.81,0 1494.58,875.016 1247.1,497.781"
             inkscape:connector-curvature="0"
             id="path30"
             style="fill:#429f87;fill-opacity:1;fill-rule:nonzero;stroke:none" /><path
             d="M 240.547,221.488 474.922,442.281 849.641,0 609.094,887.191 387.129,556.289 240.547,221.488"
             inkscape:connector-curvature="0"
             id="path32"
             style="fill:#429f87;fill-opacity:1;fill-rule:nonzero;stroke:none" /><path
             d="M 240.547,221.488 609.094,887.191 374.773,666.297 0,1108.59 240.547,221.488"
             inkscape:connector-curvature="0"
             id="path34"
             style="fill:#56c5a8;fill-opacity:1;fill-rule:nonzero;stroke:none" /><path
             d="m 2038.56,1603.08 -506.04,0 -309.93,-457.92 0,457.92 -464.184,0 0,-474.93 L 1005.9,216.012 1063.58,0 l 159.01,0 0,400.781 815.97,1202.299"
             inkscape:connector-curvature="0"
             id="path36"
             style="fill:#56c5a8;fill-opacity:1;fill-rule:nonzero;stroke:none" /></g></g></g></g></svg>